<?xml version="1.0" encoding="UTF-8" standalone="no"?>
<!-- Created with Inkscape (http://www.inkscape.org/) -->

<svg
   width="512"
   height="512"
   viewBox="0 0 512 512"
   version="1.1"
   id="svg5"
   sodipodi:docname="logo.svg"
   inkscape:version="1.1.1 (3bf5ae0d25, 2021-09-20)"
   xmlns:inkscape="http://www.inkscape.org/namespaces/inkscape"
   xmlns:sodipodi="http://sodipodi.sourceforge.net/DTD/sodipodi-0.dtd"
   xmlns="http://www.w3.org/2000/svg"
   xmlns:svg="http://www.w3.org/2000/svg">
  <sodipodi:namedview
     id="namedview7"
     pagecolor="#ffffff"
     bordercolor="#666666"
     borderopacity="1.0"
     inkscape:pageshadow="2"
     inkscape:pageopacity="0.0"
     inkscape:pagecheckerboard="0"
     inkscape:document-units="px"
     showgrid="false"
     inkscape:zoom="0.75097656"
     inkscape:cx="58.590377"
     inkscape:cy="260.3277"
     inkscape:window-width="1854"
     inkscape:window-height="1011"
     inkscape:window-x="0"
     inkscape:window-y="0"
     inkscape:window-maximized="1"
     inkscape:current-layer="layer1" />
  <defs
     id="defs2">
    <rect
       x="85.841352"
       y="194.73862"
       width="149.53706"
       height="48.954487"
       id="rect5423" />
  </defs>
  <g
     inkscape:label="Warstwa 1"
     inkscape:groupmode="layer"
     id="layer1">
    <g
       id="g48474"
       transform="matrix(1.3858855,0,0,1.3858855,-98.786686,-98.786686)">
      <g
         aria-label="*****_"
         transform="matrix(2.2614591,0,0,2.2614591,-101.33211,-243.41001)"
         id="text5421"
         style="font-size:40px;line-height:1.25;font-family:'FuraCode Nerd Font';-inkscape-font-specification:'FuraCode Nerd Font';letter-spacing:0px;word-spacing:0px;white-space:pre;shape-inside:url(#rect5423);fill:#2e2e2e;fill-opacity:1">
        <path
           d="m 96.161797,207.78495 0.24,8.08 -7.6,-2.72 -1.04,3.16 7.76,2.32 -4.92,6.4 2.68,1.96 4.56,-6.72 4.560003,6.72 2.68,-1.96 -4.92,-6.4 7.76,-2.32 -1.04,-3.16 -7.600003,2.72 0.24,-8.08 z"
           id="path47255"
           style="fill:#2e2e2e;fill-opacity:1" />
        <path
           d="m 120.16174,207.78495 0.24,8.08 -7.6,-2.72 -1.04,3.16 7.76,2.32 -4.92,6.4 2.68,1.96 4.56,-6.72 4.56,6.72 2.68,-1.96 -4.92,-6.4 7.76,-2.32 -1.04,-3.16 -7.6,2.72 0.24,-8.08 z"
           id="path47257"
           style="fill:#2e2e2e;fill-opacity:1" />
        <path
           d="m 144.16167,207.78495 0.24,8.08 -7.6,-2.72 -1.04,3.16 7.76,2.32 -4.92,6.4 2.68,1.96 4.56,-6.72 4.56,6.72 2.68,-1.96 -4.92,-6.4 7.76,-2.32 -1.04,-3.16 -7.6,2.72 0.24,-8.08 z"
           id="path47259"
           style="fill:#2e2e2e;fill-opacity:1" />
        <path
           d="m 168.16161,207.78495 0.24,8.08 -7.6,-2.72 -1.04,3.16 7.76,2.32 -4.92,6.4 2.68,1.96 4.56,-6.72 4.56,6.72 2.68,-1.96 -4.92,-6.4 7.76,-2.32 -1.04,-3.16 -7.6,2.72 0.24,-8.08 z"
           id="path47261"
           style="fill:#2e2e2e;fill-opacity:1" />
        <path
           d="m 192.16155,207.78495 0.24,8.08 -7.6,-2.72 -1.04,3.16 7.76,2.32 -4.92,6.4 2.68,1.96 4.56,-6.72 4.56,6.72 2.68,-1.96 -4.92,-6.4 7.76,-2.32 -1.04,-3.16 -7.6,2.72 0.24,-8.08 z"
           id="path47263"
           style="fill:#2e2e2e;fill-opacity:1" />
        <path
           d="m 207.84149,238.18495 v -2.96 h 20 v 2.96 z"
           id="path47265"
           style="fill:#2e2e2e;fill-opacity:1" />
      </g>
      <rect
         style="fill:none;stroke:#2e2e2e;stroke-width:8.59945;stroke-linecap:butt;stroke-linejoin:round;stroke-miterlimit:4;stroke-dasharray:none;stroke-opacity:1"
         id="rect41187"
         width="357.93631"
         height="100.65152"
         x="77.031845"
         y="205.67424"
         ry="12.178019" />
    </g>
    <path
       id="path44781"
       style="color:#000000;fill:#cd3b3b;fill-opacity:1;stroke:none;stroke-width:0.712216;stroke-linejoin:round;-inkscape-stroke:none"
       d="M 256,74.59912 C 156.0684,74.59912 74.59912,156.0684 74.59912,256 74.59912,355.9316 156.0684,437.40088 256,437.40088 355.93162,437.40088 437.40088,355.93162 437.40088,256 437.40088,156.0684 355.9316,74.59912 256,74.59912 Z m 0,42.73297 c 35.50841,0 67.79458,13.22457 92.27233,35.01266 L 135.12497,324.13906 C 123.80902,304.03476 117.33209,280.80936 117.33209,256 117.33209,179.16297 179.16297,117.33209 256,117.33209 Z m 119.42974,68.00967 c 12.21421,20.67065 19.23818,44.80729 19.23818,70.65824 0,76.83703 -61.83089,138.66792 -138.66792,138.66792 -36.55773,0 -69.69937,-14.017 -94.4201,-36.96708 z"
       sodipodi:nodetypes="ssssssccsscsscc" />
  </g>
</svg>
